<?xml version="1.0" encoding="UTF-8" standalone="no"?>
<!-- Created with Inkscape (http://www.inkscape.org/) -->
<svg id="svg3336" xmlns:rdf="http://www.w3.org/1999/02/22-rdf-syntax-ns#" xmlns="http://www.w3.org/2000/svg" height="257.81" viewBox="0 0 960 257.8125" width="960" version="1.1" xmlns:cc="http://creativecommons.org/ns#" xmlns:dc="http://purl.org/dc/elements/1.1/">
 <metadata id="metadata3342">
  <rdf:RDF>
   <cc:Work rdf:about="">
    <dc:format>image/svg+xml</dc:format>
    <dc:type rdf:resource="http://purl.org/dc/dcmitype/StillImage"/>
    <dc:title/>
   </cc:Work>
  </rdf:RDF>
 </metadata>
 <path id="path3346" d="m483.04 256.72c-0.63852-0.63852-1.1609-2.0455-1.1609-3.1267 0-9.6998-5.2832-24.335-10.951-30.335-4.9279-5.2168-4.9299-4.5765 0.0313-10.114 4.8517-5.4151 7.8409-11.791 8.6496-18.449 0.64302-5.2935-1.2043-4.2592-3.4446 1.9285-3.8792 10.715-23.565 9.8247-22.113-0.99967 0.44952-3.3514 0.33507-3.5789-1.5467-3.0742-1.1177 0.2998-2.5595 0.55085-3.204 0.55789-0.64453 0.007-1.1811 0.96202-1.1924 2.1222-0.012 1.2317-2.0598 4.2882-4.9219 7.3459-14.159 15.127-16.514 24.047-7.0648 26.757 4.2936 1.2314 4.161 3.7141-0.1803 3.3766-9.2676-0.7203-12.289-3.935-10.318-10.977 1.4627-5.2242 1.1852-5.5643-3.5083-4.3005-10.825 2.9149-22.935-7.5718-21.429-18.557l0.56942-4.1544-10.67 0.6379c-11.528 0.68922-11.832 0.57412-11.832-4.4808 0-1.7389-0.82661-2.2978-4.9219-3.3279-15.31-3.8512-21.053-9.2705-9.0454-8.5356 14.101 0.86303 15.342 0.73668 15.673-1.5964 0.43572-3.0679 2.7841-2.6194 8.1379 1.5544 2.5781 2.0099 6.5443 5.0329 8.8137 6.7179l4.1262 3.0636-0.6441-2.7382c-0.35424-1.506-1.5226-4.9552-2.5964-7.6649-2.2684-5.7243-1.56-7.4425 3.261-7.9098l2.9771-0.28856 1.7435-10.131c2.398-13.935-2.3299-13.852-39.177 0.6874-8.7 3.4329-29.968 7.6813-33.729 6.7374-5.6777-1.425-7.3608 1.2556-8.616 13.722-1.0576 10.505-3.6671 7.7643-5.5788-5.8585-1.4586-10.393-1.7472-11.251-3.7876-11.251-4.8729 0-15.865-8.0097-22.836-16.641-4.504-5.5762-5.3505-5.8996-6.6306-2.5328-0.96957 2.5502-5.8418 5.1109-9.7245 5.1109-5.884 0-10.638-8.9518-9.7823-18.419 0.25204-2.788-0.0613-3.5141-1.797-4.1646-2.3512-0.88124-2.5667-0.57527-8.6413 12.271-8.287 17.525-14.412 25.504-20.926 27.258-11.117 2.9934-20.309-7.7684-12.934-15.143 6.8946-6.8946 17.917-0.63482 14.004 7.9532-0.58747 1.2893-1.7476 2.5259-2.5781 2.7479-1.2434 0.33231-1.2121 0.42278 0.17718 0.51233 3.9915 0.25728 15.657-12.048 15.657-16.516 0-0.41099 0.78471-2.2176 1.7438-4.0146 0.95908-1.797 2.0739-4.3165 2.4774-5.5988s1.7955-3.936 3.0934-5.8972c1.7897-2.7044 2.0971-3.8284 1.2726-4.6529-1.8093-1.8093-1.2307-3.5711 1.491-4.5399 1.418-0.50477 3.8438-2.6685 5.3906-4.8082 7.0306-9.7252 4.483-8.5455-8.0204 3.7141-19.921 19.533-38.386 23.863-38.386 9.0023 0-7.1525 13.516-10.8 14.17-3.8245 0.24333 2.5926-0.35688 4.984-1.6013 6.3803-2.7634 3.1006-0.35689 3.7325 4.5868 1.2044 2.983-1.5254 14.334-10.008 16.125-12.05 0.51562-0.58794 4.9453-4.6282 9.8438-8.9782 4.8984-4.3501 10.626-9.761 12.728-12.024 6.3303-6.8158 5.2678 3.9194-1.1096 11.211-4.1913 4.7921-2.2644 8.7179 3.7962 7.7344 3.2504-0.52745 3.337-0.65152 3.3999-4.8717 0.0355-2.3818 0.21121-5.4298 0.3904-6.7736 0.43827-3.2864 6.7744-17.234 10.04-22.101 4.278-6.3755 3.1468-6.2929-6.9798 0.50979-27.213 18.28-32.97 21.656-48.984 28.714-3.0837 1.3593-21.745 7.0274-28.842 8.7602-9.4366 2.3042-28.445 0.24817-38.055-4.1163-5.0854-2.3096-6.6972-2.2974-6.6972 0.0507 0 2.1925-1.8986 2.613-3.8449 0.85162-2.1167-1.9156-1.4094-2.2072-22.874 9.4277-6.1875 3.3539-11.566 6.1046-11.953 6.1125-1.567 0.0322-0.53558-2.4129 2.2148-5.2505 3.7273-3.8456 3.7118-3.8638-8.2815-9.6905-5.5578-2.7001-10.833-5.5579-11.722-6.3506-1.1519-1.0269-2.653-1.2755-5.2213-0.86485l-3.6046 0.5764-2.7858-6.7155c-3.3018-7.9593-4.4686-8.6567-6.4652-3.8642-7.8838 18.923-39.274 20.764-49.2 2.8851-1.219-2.1956-2.6083-4.2551-3.0872-4.5766-3.8654-2.5945 2.2881-26.718 7.8001-30.579 2.6752-1.8738 2.3775-2.4311-3.3192-6.2135-7.0609-4.6882-6.2828-9.9352 0.86102-5.8066 1.5889 0.91828 4.8404 2.6949 7.2254 3.9481l4.3364 2.2785 3.6323-2.1466c5.7979-3.4264 19.473-2.9752 31.07 1.0253 10.217 3.5245 9.0906 3.9709 18.651-7.3907 9.0152-10.713 17.936-12.313 9.8533-1.7671-7.0367 9.1809-9.0444 16.795-5.0832 19.277 1.418 0.88854 4.4766 3.336 6.7969 5.4388 4.0002 3.6252 22.966 18.033 28.242 21.455 2.3644 1.5334 2.4802 1.5212 2.9591-0.31001 0.31062-1.1878 1.2757-1.9059 2.5615-1.9059 1.6016 0 1.9094-0.36696 1.3758-1.6406-1.3528-3.2295-1.4708-15.672-0.19332-20.386l1.2689-4.6829-5.3853-7.2632c-10.091-13.609-7.0724-18.624 3.9289-6.5272 6.3193 6.9483 7.1101 7.3654 9.6172 5.0725 9.3204-8.5238 30.258-7.121 38.415 2.5738 3.1394 3.731 4.2258 3.6077 8.6601-0.98289 5.0996-5.2793 11.631-9.7075 12.716-8.6219 1.1057 1.1057-2.9255 6.6821-9.3452 12.927-10.042 9.7687 13.16 28.029 25.274 19.891 8.616-5.7881 1.0032-19.926-9.0656-16.836-7.061 2.1671-7.3413 0.05303-0.61503-4.6389 12.65-8.8242 29.77 3.1403 23.175 16.196-7.6726 15.188-25.812 15.979-38.97 1.6978l-6.1615-6.6875 0.415 5.7374c0.38453 5.3161-0.96385 11.358-2.5348 11.358-0.3419 0-1.3944 1.3082-2.3389 2.9071-3.5398 5.9925-15.199 8.3627-22.593 4.5929-5.332-2.7184-6.2328-2.402-9.6094 3.3745-4.4342 7.5859-4.9172 7.0716 10.547 11.228 14.52 3.9026 51.049-0.19754 39.044-4.3824-4.964-1.7305-10.007-13.798-6.3516-15.201 0.71276-0.27351 3.1901 1.3047 5.5559 3.5396 10.989 10.38 26.546 7.0172 52.684-11.39 2.06-1.4507 6.9196-4.5361 10.799-6.8564 3.8795-2.3203 8.5222-5.3251 10.317-6.6772 1.7949-1.3522 5.1355-3.066 7.4236-3.8086 6.0479-1.9627 6.0042-3.5721-0.0977-3.5972-12.45-0.05126-20.551-9.396-16.068-18.535 3.1845-6.4918 9.9382-9.1347 17.027-6.6634 5.0607 1.7642 5.3911 9.0297 0.36695 8.0692-3.2942-0.62972-5.4849 0.58435-7.2646 4.0259-4.1205 7.9681 11.106 12.373 24.394 7.0571 23.132-9.2544 45.76-6.0805 68.972 9.6746 8.8131 5.9819 8.5453 6.025 6.3998-1.03-2.8873-9.4944-1.8054-15.037 3.8667-19.81 9.1606-7.7082 23.224-1.1774 23.36 10.848 0.0398 3.5029-1.8158 5.9742-2.6367 3.5116-0.90351-2.7105-5.643-6.5031-8.1268-6.5031-11.005 0-12.426 20.025-2.1404 30.161 2.2647 2.2317 9.3341 9.6463 15.71 16.477 13.227 14.17 11.656 13.968 17.42 2.2424 1.8962-3.8573 4.9068-7.9485 7.9171-10.759 6.2164-5.8037 5.5704-6.2742-2.8913-2.1056-17.906 8.8215-38.093-7.7122-20.515-16.802 11.886-6.1463 19.747 8.5617 8.0754 15.109-7.8334 4.394 2.2225 2.3435 13.477-2.7481 1.8047-0.81646 5.4158-2.7142 8.0247-4.2173 5.9406-3.4225 14.594-6.5268 20.42-7.3253 2.7503-0.37697 4.2858-1.0106 3.9978-1.6498-0.25715-0.57076-1.8039-4.2877-3.4373-8.2599-5.0248-12.22-12.195-18.491-21.194-18.539-6.6289-0.03493-9.3057 1.9782-4.3007 3.2344 7.7249 1.9388 5.652 12.683-2.4469 12.683-12.25 0-8.7227-17.788 3.8934-19.636 3.9515-0.57882 4.7595-1.6798 2.3488-3.2004-1.1129-0.70198-2.6846-0.72033-5.1576-0.06023-5.1854 1.384-7.9487 0.40013-10.112-3.6006l-1.8708-3.459 1.9636-1.9636c5.0148-5.0148 11.79-3.605 13.983 2.91 1.0609 3.151 3.6092 5.5394 4.7225 4.4261 0.33623-0.33624-0.53494-2.9543-1.936-5.8178-4.9832-10.185 4.1376-21.529 11.113-13.821 3.0932 3.418 0.0421 7.6606-5.5091 7.6606-5.9366 0-3.3788 8.4166 5.6598 18.623 4.4772 5.0559 8.1502 11.224 9.8454 16.533 0.65853 2.0625 1.7701 4.5822 2.4702 5.5992 3.544 5.1488 0.38164-12.449-3.936-21.903l-2.308-5.0536 2.4291-5.2589c2.1066-4.5607 4.0893-13.474 7.7954-35.044 1.6408-9.5497 3.8549-6.754 3.8549 4.8677 0 9.8813 2.2156 20.94 5.5934 27.919 2.399 4.9564 2.4384 4.4747-0.9342 11.437-2.4894 5.1391-5.5967 16.415-5.5967 20.31 0 2.4851 1.5768 1.3748 3.2187-2.2664 0.89566-1.9862 2.7527-4.8101 4.1268-6.2752 15.009-16.004 20.715-27.387 13.456-26.841-8.0768 0.60766-11.347-4.8691-5.7294-9.5958 3.2395-2.7258 3.5364-2.791 6.8979-1.513 5.3396 2.0301 7.5153 9.6643 4.6848 16.438-2.2358 5.3511-0.33807 6.3331 3.7868 1.9595 1.8197-1.9295 3.3086-3.8809 3.3086-4.3364 0-1.692 6.49-2.1139 8.8393-0.57457 7.1524 4.6864 0.22848 13.805-7.9865 10.518-3.3356-1.3346-4.0026-1.3316-7.4153 0.0339-4.7917 1.9172-4.7103 2.3958 0.69894 4.1094 7.6994 2.4391 11.354 12.407 6.3749 17.386-4.3643 4.3644-12.699 2.1919-12.699-3.3101 0-4.1109 2.3302-5.8385 7.3874-5.4771 3.5082 0.25072 4.3552 0.003 4.6201-1.3513 0.78693-4.0241-11.782-5.8868-17.186-2.5469-2.9299 1.8108-9.8219 9.4091-9.8219 10.828 0 0.37548-1.5134 2.9628-3.3632 5.7495-3.5566 5.3583-3.6967 8.3774-0.34801 7.5017 2.4528-0.64142 11.805 2.6403 15.494 5.4372 1.5823 1.1995 4.7464 2.6808 7.0312 3.2919 2.2849 0.61108 4.5762 1.4486 5.0918 1.8612 1.5113 1.2093 10.936 3.7688 11.834 3.2137 1.379-0.85227 0.92053-2.1146-0.98804-2.7203-6.0653-1.925-1.0622-13.539 5.8558-13.594 11.094-0.08761 12.58 14.858 1.9204 19.312-5.2347 2.1872-14.189 1.0593-18.623-2.3458-1.0312-0.79199 2.5248 3.0553 7.9024 8.5495l9.7774 9.9895 2.2498-2.5284c1.2374-1.3906 3.2157-4.0049 4.3964-5.8096 1.1806-1.8047 3.8308-5.1153 5.8892-7.3569 15.022-16.358 16.489-38.928 2.4226-37.275-7.6997 0.90495-4.6123-6.4976 4.0898-9.8062 15.91-6.0489 21.91 9.8309 10.032 26.549-1.741 2.4504-3.1655 4.6653-3.1655 4.9219 0 0.87803 1.7401 0.46752 2.9896-0.7053 4.8928-4.5923 13.885-11.987 13.885-11.418 0 0.38133 0.73828 0.04629 1.6406-0.74452 9.931-8.7036 40.361-15.776 56.261-13.077 11.169 1.8965 22.185 2.3866 24.677 1.0979 6.9874-3.6122 8.5172-8.7521 3.6713-12.335-3.8233-2.8267-3.6324-4.5393 0.5061-4.5393 15.243 0 18.015 19.433 3.3922 23.775-4.7173 1.4009-8.5337 1.0635-18.392-1.626-5.4037-1.4742-13.648-2.109-9.4124-0.72472 3.4279 1.1202 16.355 7.7338 16.927 8.6603 0.31 0.5016 5.6329 3.4532 11.829 6.559 6.1958 3.1059 17.448 9.1558 25.004 13.444 23.187 13.159 22.888 13.04 31.178 12.471 11.41-0.78207 15.698-3.8045 17.267-12.169 1.2416-6.6226 5.6726-1.7024 5.4703 6.0741-0.1848 7.1027-4.1149 10.098-13.251 10.098-7.6913 0-4.8374 2.1624 5.4182 4.1054 46.247 8.7618 75.01-0.73688 50.036-16.524-0.60872-0.38479-2.94 0.34841-5.1807 1.6293-12.967 7.4128-25.075-0.15404-27.674-17.294l-0.81-5.102-4.22 4.037c-14.89 14.248-37.375 9.1234-37.479-8.5415-0.0557-9.4144 12.91-14.888 19.901-8.4019 3.4015 3.1559 3.253 3.9162-0.76475 3.9162-10.091 0-9.8836 10.943 0.28309 14.957 6.1445 2.4254 12.244 0.33757 19.838-6.7911 5.7981-5.4424 5.8106-4.4587-0.1377-10.906-11.087-12.018-8.4226-15.105 4.5138-5.2304l4.4286 3.3804 3.6908-3.7277c7.6395-7.7159 18.163-9.9883 30.023-6.4831 1.9336 0.57148 3.5156 1.3934 3.5156 1.8265 0 2.4623 3.2123 0.06502 6.1683-4.6032 8.6975-13.735 12.372-11.029 5.0529 3.7224-3.4937 7.0417-3.4861 7.1878 0.57749 11.094 6.0337 5.7996 9.8169 18.315 7.7734 25.715-2.3183 8.396 2.4205 6.8183 16.079-5.3535 5.9441-5.297 13.854-11.709 17.578-14.25 8.156-5.5636 8.1021-4.6328 1.1073-19.126-8.5009-17.613-6.2212-18.719 6.6009-3.2005 8.6083 10.418 8.4902 10.373 17.514 6.7186 10.041-4.0663 23.175-4.8477 31.909-1.8984 7.2245 2.4395 9.3546 2.4549 12.92 0.09352 6.0349-3.9968 8.1508-1.1841 3.2812 4.362-3.1794 3.6211-3.3887 4.7107-1.4398 7.4931 0.75497 1.0779 2.3732 4.635 3.596 7.9048 3.6716 9.8178 17.37 15.447 22.453 9.2273 2.1753-2.6615 2.0725-5.6852-0.29532-8.6954-4.1583-5.2865 2.9786-6.3115 8.1234-1.1667 3.7278 3.7278 4.1754 7.6219 1.4674 12.765-4.32 8.2038-16.813 8.4155-24.567 0.4161-3.7954-3.9159-5.3642-4.0862-6.128-0.6651-2.1133 9.4654-10.427 19.922-15.84 19.922-1.3365 0-3.9445 0.63281-5.7956 1.4062-7.334 3.0644-15.376 0.56707-23.124-7.1808-7.1642-7.1642-8.1829-6.9655-14.629 2.8534-6.6901 10.19-8.2797 11.567-10.141 8.7805-1.7753-2.6576-2.8911-2.6424-8.0666 0.10941-2.2951 1.2203-5.5319 2.6925-7.1928 3.2715-2.2143 0.77189-2.8954 1.493-2.5534 2.7031 1.2522 4.4314 1.2367 4.4705-1.6488 4.1696-1.5469-0.16128-5.2383-0.32559-8.2031-0.36512-4.922-0.0656-5.3906-0.25279-5.3906-2.153 0-1.7319-1.0259-2.4179-6.1134-4.088-7.6458-2.5099-7.762-2.5056-9.0571 0.33686-1.3125 2.8806-3.2502 2.9798-6.0901 0.3119l-2.1628-2.0318-4.9289 2.4776c-9.6844 4.8681-34.049 7.1349-46.4 4.317-21.489-4.9029-40.557-12.047-55.825-20.917-4.5286-2.6307-9.9151-5.6738-11.97-6.7625s-4.4669-2.6226-5.3599-3.4088c-0.89304-0.78616-3.9379-2.5896-6.7663-4.0076-5.5234-2.7692-5.5097-2.3666 0.12856 3.7708 1.4211 1.5469 2.6552 3.2344 2.7425 3.75 0.0873 0.51562 1.203 3.2578 2.4793 6.0938 1.5357 3.4123 2.4635 7.4755 2.7432 12.014 0.61532 9.9844 1.1938 11.03 6.5016 11.758 5.7524 0.78845 5.6888 1.5714 0.84917-10.469-4.0783-10.146-5.0598-14.24-3.4138-14.24 0.96638 0 13.708 13.852 16.619 18.066 3.1277 4.5291 9.5816 10.059 11.74 10.059 1.3471 0 1.8166 0.52013 1.6089 1.7824-0.94969 5.7711 19.102 15.801 24.55 12.28 1.0527-0.68032 0.56347-0.91239-1.946-0.92315-7.265-0.0311-9.8992-8.5165-3.6475-11.749 8.7092-4.5037 17.121 3.3866 12.393 11.625-5.135 8.9472-17.271 6.7376-31.575-5.749-3.5408-3.0908-9.9116-5.032-9.9116-3.0201 0 1.6528 8.2939 15.787 15.441 26.315 6.3856 9.4055 14.574 15.377 21.084 15.377 4.2236 0 5.0694-1.35 1.4198-2.266-9.1388-2.2937-7.8796-12.734 1.5358-12.734 10.05 0 12.961 15.362 3.5328 18.648-12.809 4.4653-28.68-9.6244-42.918-38.101-4.3224-8.6452-5.9713-9.8218-5.1264-3.658 1.3936 10.168-5.3033 21.236-12.849 21.236-6.6428 0-9.0533-4.3627-5.5685-10.078 2.2977-3.7686 8.4888-4.4569 10.54-1.1719 2.5972 4.1587 4.7829 0.27353 4.8642-8.6463 0.0436-4.785-0.69821-5.1543-9.4276-4.693l-7.627 0.40307-0.51942 3.2007c-2.1287 13.118-13.835 26.233-28.758 32.219-4.2037 1.6863-4.654 2.4094-4.6813 7.5165-0.033 6.1935-1.0992 14.062-1.9054 14.062-0.73386 0-1.309-2.3872-2.8234-11.719-1.2698-7.8249-1.5513-8.4379-3.2332-7.0421-4.9013 4.0677-29.623-0.0499-50.638-8.4343-15.154-6.0458-25.83-8.6683-25.732-6.3205 0.23159 5.5324 5.493 14.309 8.7453 14.588 3.9012 0.33453 4.2508 1.7876 1.9599 8.1465-3.2008 8.8846-2.5285 9.1961 8.0946 3.75 9.4782-4.8592 10.871-5.0784 12.079-1.9017 0.87064 2.29 1.0312 2.3201 13.728 2.5781 9.1709 0.18635 12.957 0.59253 13.232 1.4195 0.42365 1.2752 0.24627 1.3583-13.706 6.4179-8.7779 3.1833-9.8507 3.8288-11.022 6.6315l-1.2974 3.105-5.3845-1.9262c-2.9615-1.0594-6.2282-2.2887-7.2595-2.7317-8.073-3.468-10.73-3.1671-10.767 1.2198-0.0636 7.4655-11.266 16.573-20.405 16.589-3.0176 0.006-3.9776 1.4544-2.2081 3.3334 4.8406 5.14-1.8232 15.685-8.8047 13.933-3.4545-0.86702-3.4347-2.7598 0.0619-5.9416 5.5762-5.0742 4.5004-8.5489-5.6999-18.41-3.7675-3.6423-7.4998-8.1774-8.2939-10.078-0.90108-2.1566-2.0787-3.4606-3.1324-3.4686-0.92866-0.007-2.6856-0.2797-3.9042-0.60591-2.0646-0.55264-2.1373-0.44643-1.0654 1.5563 4.0118 7.4962-2.3403 16.539-10.991 15.646-6.1604-0.63581-6.6179-0.9921-11.089-8.6368-4.1813-7.1497-4.6826-7.1917-2.872-0.24048 1.6925 6.498 4.4543 12.02 9.1695 18.335l3.6944 4.9479-4.2996 4.8959c-2.3648 2.6928-4.5558 5.9506-4.869 7.2397s-1.168 3.5313-1.8996 4.9827-1.6216 6.7248-1.9778 11.719c-0.6747 9.4595-2.2271 11.813-5.5804 8.4595zm-54.24-45.82c10.968-4.1037 22.489-18.804 12.758-16.28-6.0513 1.5697-6.556 1.9239-6.556 4.6015 0 3.0146-0.7032 3.2505-5.625 1.887-2.3203-0.64279-8.1775-2.2642-13.016-3.6032-10.681-2.9559-12.313-2.5049-12.263 3.3897 0.0836 9.8058 12.16 14.697 24.701 10.005zm129.64-9.9163c4.74-3.8364 5.9176-7.8776 3.5673-12.242-1.6302-3.0272-1.8076-3.1194-2.4838-1.2915-0.40051 1.0827-1.4766 2.2197-2.3914 2.5267-0.91472 0.30703-4.1944 1.5199-7.2881 2.6952-10.09 3.833-11.64 3.8957-12.32 0.498-0.72533-3.6267-2.2952-4.4964-8.7332-4.8381-6.5758-0.34902-6.7424 0.6306-1.0979 6.4561 9.8239 10.139 22.675 12.728 30.747 6.1954zm-55.47-0.36c-0.31867-0.51563-1.3139-0.9375-2.2116-0.9375-11.467 0-3.5347-13.373 8.366-14.104 9.3803-0.57648 10.114-0.93214 8.4255-4.0864-0.91856-1.7163-0.97823-3.5508-0.25151-7.733 1.159-6.6702 1.4312-6.3895-3.9057-4.0287-11.254 4.9783-19.843-0.2714-15.183-9.2812 2.6978-5.217 6.167-5.8417 6.167-1.1104 0 8.263 9.7442 6.7606 19.733-3.0426 6.9817-6.8518 13.33-9.795 23.095-10.707 5.4376-0.50777 5.9212-0.73332 5.9212-2.7611 0-3.0378 1.4944-2.7739 2.6228 0.46306 0.82141 2.3563 1.6336 2.8073 6.8886 3.825 7.1669 1.388 17.98 4.9143 25.113 8.1895 10.984 5.0432 11.841 4.7538 5.6881-1.9209-2.0625-2.2376-3.75-4.3778-3.75-4.7562 0-0.37836-0.93799-2.0052-2.0844-3.6152s-2.1529-3.3939-2.2366-3.9643c-0.0837-0.57036-1.1015-4.1698-2.2618-7.9987s-2.2499-7.489-2.4215-8.1336c-0.63469-2.3848-9.1707-1.441-11.692 1.2927-7.5368 8.1728-22.827 6.6393-32.016-3.211l-4.4303-4.7495-3.8861 4.3886c-2.1374 2.4137-4.55 5.4432-5.3613 6.7323-2.9345 4.6624-9.7227 12.188-10.994 12.188-0.71542 0-1.7211 0.78547-2.2349 1.7455-1.2545 2.3441-12.483 8.9259-18.555 10.876-5.6732 1.8223-6.5537 3.9593-5.532 13.426 2.1412 19.84 1.9775 19.151 6.1704 25.984 2.2149 3.6094 4.4998 6.8724 5.0776 7.2513 1.5981 1.0477 6.4076 0.8633 5.7381-0.22002zm-26.39-10.59c0.31339-2.1638 1.2182-8.153 2.0106-13.309 2.1657-14.091 1.1891-22.969-2.5267-22.969-4.9827 0-17.609-6.9801-24.975-13.807-1.2642-1.1716-2.7038-2.1303-3.1991-2.1303-0.49529 0-4.0196-3.0244-7.8319-6.7209-3.8122-3.6965-6.9313-6.2778-6.9313-5.7362 0 8.1952-19.938 14.269-30.469 9.2816-17.739-8.4005-14.536-35.004 3.9844-33.093 6.9093 0.71293 5.7221-1.1828-8.3269-13.296-3.8494-3.319-5.521-3.5245-10.167-1.2502-5.9612 2.9183-6.2181 8.4282-0.51955 11.146 3.8665 1.8438 4.3719 4.0437 0.92904 4.0437-3.5801 0-9.2908-3.2788-10.559-6.0627-3.1559-6.9264 0.14466-13.607 6.7386-13.639 5.8553-0.02878 5.8534-1.4253-0.007-5.1867-18.502-11.875-35.007-15.496-54.944-12.056-12.629 2.1794-14.192 3.3148-17.076 12.401-0.82271 2.5921 3.1194 6.7308 6.4111 6.7308 4.8924 0 3.4229 4.2144-2.2954 6.583-6.8259 2.8274-16.012-6.7491-11.306-11.786 4.6444-4.9709 0.70154-6.4901-4.5442-1.7509-10.288 9.2942-23.086 39.767-16.703 39.767 2.3142 0 3.5396-2.1746 3.5396-6.2812 0-5.265 0.065-5.2562 15.553 2.0854 14.562 6.9031 14.976 6.9474 14.588 1.5616-2.9189-40.427 58.105-35.181 62.342 5.3594l0.59705 5.7123 3.3821 0.0128c4.6624 0.0176 7.6008 0.91873 7.6008 2.3309 0 1.4672-2.9739 2.3141-8.1853 2.331-3.5594 0.0115-4.0251 0.27742-4.5373 2.5909-1.8089 8.1701-5.2541 15.379-9.6281 20.146-3.4012 3.7072-2.3295 3.8399 5.7825 0.71625 12.545-4.8307 17.86-6.3178 25.046-7.0082 5.5483-0.53308 7.3203-1.0889 8.5851-2.6928 1.4288-1.8119 1.7199-1.8687 2.8125-0.54896 0.67032 0.80966 3.961 2.0049 7.3125 2.6561 10.528 2.0455 21.037 9.4512 25.714 18.12 1.5693 2.9088 1.9441 3.073 7.3854 3.2352 9.3379 0.27848 14.881-4.7548 10.12-9.1898-1.8842-1.7554-1.942-3.6374-0.11168-3.6374 2.084 0 6.5634 5.0564 7.1232 8.0409 2.0028 10.676-10.774 15.915-19.67 8.0657-1.7267-1.5235-1.7605-1.4674-1.0264 1.7059 0.4175 1.8047 0.87061 6.0234 1.0069 9.375l0.24779 6.0938 3.5894 0.62506c1.9742 0.34378 5.2866 0.21234 7.3609-0.29209 5.8387-1.4198 8.6021 0.0583 9.9241 5.3083l1.0822 4.2977 2.0999-1.9728c1.2228-1.1488 2.3379-3.6161 2.6697-5.907zm-54.612-5.3405c11.314-5.5633 11.158-5.5419 11.158-1.5337 0 3.3395 2.6675 4.3462 11.516 4.3462h2.8172l-0.57711-6.1802c-1.4642-15.679-15.457-30.208-29.544-30.675-6.2804-0.20835-6.3966 0.0815-5.3059 13.24 0.58708 7.0831 0.85076 7.8693 2.9006 8.6487 3.0306 1.1522 2.8482 2.6461-1.0264 8.4037-6.3609 9.4522-4.9096 10.127 8.0605 3.75zm136.78-0.58c0-0.31771-2.142-3.3033-4.7601-6.6347-4.715-5.9997-5.356-8.7112-2.0662-8.7395 4.0728-0.0351 4.3604-1.0612 3.0245-10.791l-1.2529-9.1259-6.9773 0.5898c-17.23 1.4564-29.707 16.374-26.011 31.098 0.9307 3.7082 14.771 1.6118 15.819-2.3962 0.69938-2.6744 2.2284-2.359 11.061 2.2818 7.3072 3.8395 11.164 5.1239 11.164 3.718zm-210.24-22.398c13.101-3.7682 23.758-14.879 26.884-28.03l0.6476-2.7241-10.99 0.62766c-12.222 0.69807-13.265 1.1549-13.676 5.9913-0.37872 4.4537-1.3578 4.5905-6.7966 0.94972-6.4657-4.3281-15.861-9.9781-16.693-10.038-2.0675-0.14969 1.9059 7.3286 8.0203 15.095 3.5268 4.4796 3.0738 6.5904-1.6237 7.5664-5.1281 1.0655-9.0841 8.0432-6.7115 11.838 1.0047 1.6069 13.582 0.84084 20.939-1.2754zm287.33 0.59791c0.74444-0.70636-1.1642-11.103-2.389-13.013-0.45001-0.70185-2.7973-1.1719-5.8523-1.1719-6.4094 0-6.4096 0.0128 0.12949-12.508 7.1307-13.654 3.8267-13.415-13.134 0.95024-5.3622 4.5418-7.0933 4.2175-7.1112-1.3324-0.0221-6.8713-0.19801-6.9915-12.642-8.6437-3.6094-0.47922-7.5117-1.1527-8.6719-1.4966-2.4663-0.73106-2.8969 2.4655-1.0946 8.1254 5.1792 16.265 18.974 28.311 34.61 30.224 4.1505 0.50764 15.246-0.27057 16.155-1.1331zm22.914-8.6853c5.4872-4.2334 6.0841-4.926 11.05-12.823 2.9641-4.7133 4.9768-11.019 3.8704-12.125-1.0394-1.0394-3.1894 1.815-3.7938 5.0372-0.80284 4.2795-1.8098 4.0525-14.695-3.3132-15.368-8.7852-15.95-8.4248-7.3547 4.5553 5.9064 8.9194 6.4137 11.294 2.413 11.294-6.4317 0-9.4008 6.095-6.5667 13.48 0.81198 2.116 8.4052-0.9592 15.076-6.1056zm-342.58 3.8367c-0.61408-6.1883-0.91399-6.5241-5.8275-6.5241-6.4235 0-6.4551-4.3255-0.0855-11.719 2.0215-2.3464 7.548-12.296 7.548-13.589 0-0.87449-9.9958 3.8934-20.61 9.831-2.3124 1.2935-4.7381 2.3518-5.3906 2.3518-2.4731 0-0.96946 2.6119 5.6126 9.7495 9.6054 10.416 19.313 15.541 18.753 9.8996zm179.71-8.7804c11.07-5.3877 13.386-8.0561 6.9913-8.0561-4.2793 0-6.207-2.1855-5.4566-6.1859 1.2528-6.6783-5.1822 1.0086-8.9356 10.674-3.1581 8.1323-2.565 8.4183 7.4008 3.5683zm-19.213 0.147c-2.6813-8.8611-8.2854-15.544-9.2-10.972-0.40186 2.0093-1.2236 2.8676-3.1502 3.2905-6.7114 1.4729-6.4328 1.9779 3.6435 6.6013 8.2667 3.7931 9.577 3.9556 8.7068 1.0798zm-21.05-13.3c0-3.3256 0.0833-3.3911 6.0057-4.7181 3.5316-0.79132 2.4455-1.855-6.7556-6.6163-8.2871-4.2884-9.4113-3.7878-7.3188 3.2585 2.4419 8.2228 8.0687 13.855 8.0687 8.076zm-180.98 0.28667c2.1288-1.5739 3.4216-1.8579 6.1373-1.3485 3.2705 0.61355 3.408 0.53839 2.7848-1.5217-2.0252-6.6941-14.507-7.0323-14.507-0.39306 0 5.8758 1.146 6.5454 5.5853 3.2633zm14.11-3.11c0-2.1764-1.4858-4.0383-2.4518-3.0723-0.71355 0.71355 0.68725 5.3608 1.6159 5.3608 0.45973 0 0.83587-1.0298 0.83587-2.2884zm226.81-4.3814c2.0119-9.381 1.7062-9.6292-7.2011-5.8484-6.0561 2.5706-7.4344 4.0808-3.7242 4.0808 3.2049 0 5.9824 2.3846 6.6468 5.7065 0.831 4.155 2.9638 2.1916 4.2785-3.9389zm-93.014 2.4269c7.0351-2.9395 9.5203-7.1724 6.3929-10.889-5.0537-6.006-7.8859-7.7634-9.7674-6.0607-1.5749 1.4253-1.8648 1.4001-4.0968-0.35556-6.0006-4.72-12.887-0.86983-12.887 7.205 0 9.3982 10.076 14.397 20.359 10.1zm22.414-2.6748c-0.84425-1.7791-1.8033-5.802-2.1313-8.9398-0.71454-6.8364-0.96768-6.9169-4.445-1.4128l-2.7096 4.2888 4.9984 5.0613c5.5323 5.6018 6.5871 5.8485 4.2875 1.0025zm84.683-10.974c0.87575-1.4764-9.531-13.159-10.69-12-0.25854 0.25855-0.0448 3.111 0.47504 6.3387 0.6076 3.7729 0.63015 7.6014 0.0631 10.721-0.48509 2.6689-0.65161 5.2253-0.37003 5.6809 0.48185 0.77965 8.6094-7.5172 10.522-10.741zm-44.707 8.2821c6.7901-5.1504 4.4662-15.735-3.4412-15.673-6.6922 0.0519-10.68 4.9624-9.0246 11.112 1.4537 5.3986 8.1378 7.8446 12.466 4.5617zm75.487-1.951c3.9151-3.9151 3.6498-11.977-0.51687-15.702-5.7075-5.1028-13.513-3.0649-14.905 3.8911-0.72759 3.6379-2.5247 3.0366-3.1274-1.0465l-0.46875-3.1753-3.1205 3.9464-3.1205 3.9464 2.8961 3.5135c6.502 7.8881 16.941 10.048 22.363 4.6267zm-419.24-7.03c7.6357-7.1324 8.1977-7.8938 6.573-8.9062-0.97709-0.60889-8.7706-6.3268-17.319-12.707-19.133-14.279-20.692-15.11-23.787-12.677-1.243 0.97708-5.2865 4.0432-8.9854 6.8136-8.4354 6.3179-8.6529 5.9912 3.7308 5.6031 11.517-0.36092 12.894 0.2827 8.7753 4.1016-3.2268 2.992-2.7789 3.8265 6.7202 12.52 4.4182 4.0435 9.0728 8.9229 10.343 10.843 2.9405 4.4434 3.4053 4.2571 13.949-5.5916zm236.63 7.4062c0-9.6416-8.5653-24.003-17.344-29.08-18.192-10.522-38.906-0.77754-38.906 18.302 0 8.9598 0.41377 9.033 16.012 2.8352 15.826-6.2883 14.922-6.2113 14.94-1.2732 0.0206 5.7361 0.46143 6.0524 10.739 7.7062 5.1208 0.82402 9.5072 1.6948 9.7474 1.9351 0.80277 0.80277 4.8118 0.44874 4.8118-0.42493zm322.05-5.6835c-2.0047-2.053-3.809-3.5688-4.0094-3.3684-0.6159 0.61589 2.4728 5.9645 3.7385 6.4737 3.4481 1.3873 3.5474 0.25005 0.2709-3.1053zm-8.1838-5.1382c-4.5828-9.2404-5.7163-10.08-1.8297-1.355 1.4718 3.304 2.9389 6.7456 3.2601 7.648 0.32124 0.90234 1.0161 1.6406 1.5442 1.6406 0.52804 0-0.8105-3.5701-2.9746-7.9335zm-233.48-0.31053c5.6972-3.7827 5.9557-4.7053 2.1146-7.5452-4.94-3.6523-3.3452-11.429 2.3773-11.591 4.488-0.1276 6.5124 0.93376 7.6797 4.0263 1.3316 3.5278 2.2895 3.0544 4.9532-2.4482 5.5474-11.459 3.8038-13.431-7.7632-8.7773-12.484 5.0221-19.012 13.616-20.111 26.475l-0.54942 6.4268 3.1859-1.6475c1.7522-0.90612 5.4031-3.1196 8.113-4.9189zm123.99 4.3258c0-23.238 42.145-40.677 51.704-21.394 4.3552 8.786 5.6954 12.29 5.9173 15.469 0.14395 2.0625 0.31618 4.0664 0.38275 4.4531 0.23912 1.3892 5.0644 0.66033 10.789-1.6297 17.017-6.808 20.27-7.1454 20.27-2.1029 0 3.3883 1.3845 5.3732 3.7481 5.3732 6.333 0-2.3323-25.209-12.166-35.394l-7.012-7.2623-0.30312 4.4069c-0.59882 8.7062-7.6899 13.027-15.008 9.1447-7.1522-3.7942-7.7167-7.9916-1.0217-7.5966 4.8461 0.28594 6.4506-1.0758 6.4506-5.4747 0-19.45-51.553-18.146-74.965 1.8971l-3.2458 2.7787h5.7406c7.8142 0 12.888 5.7189 11.165 12.584-2.0895 8.3252-10.111 10.951-9.2944 3.0431 1.0764-10.429-10.102-12.822-20.29-4.3429-6.1875 5.1493-7.4938 8.0105-3.0956 6.7806 11.576-3.2373 21.72 4.6148 21.776 16.857l0.0206 4.4531h4.2188c3.7096 0 4.2188-0.24661 4.2188-2.0433zm15 0.5272c8.2953-0.94375 8.3043-0.94925 8.6182-5.2771 0.31572-4.3531 2.1028-5.4826 5.8019-3.6669 1.0924 0.53617 4.9393 2.2423 8.5486 3.7914 3.6094 1.5491 8.25 3.6542 10.312 4.6782 4.9066 2.4359 6.1393 1.2848 6.2241-5.8119 0.33583-28.116-47.485-24.755-51.373 3.6101l-0.61391 4.479 4.1314-0.6614c2.2723-0.36377 6.0299-0.87739 8.3502-1.1414zm-523.35-5.07c5.2797-2.3355 8.2792-4.9972 10.205-9.0567 2.7814-5.8613 1.965-6.4269-8.9169-6.1777-12.542 0.28725-13.934-0.3703-11.381-5.3744 2.4864-4.8737 2.3713-6.211-0.70138-8.1478-1.418-0.8938-5.4731-4.0877-9.0113-7.0974-7.5449-6.418-8.3684-6.286-13.489 2.1626-13.145 21.69 9.2332 44.335 33.294 33.691zm443.2 1.8668c1.7829-2.8848-6.5058-19.228-12.357-24.366-6.4711-5.6817-19.907-9.2012-18.743-4.9099 0.24463 0.90234 0.7195 2.9062 1.0553 4.4531 1.9782 9.1135 5.5915 13.533 7.2276 8.8393 2.2044-6.3237 10.366-5.3236 10.914 1.3374 0.36231 4.4009-1.7982 7.167-5.598 7.167-1.467 0-2.6672 0.35649-2.6672 0.7922 0 3.8216 18.209 9.8585 20.169 6.6867zm323.71-11.38c7.28-5.4636 7.6861-5.9579 7.6861-9.3571 0-4.1064-0.94812-3.6734 15-6.8502 12.05-2.4004 12.099-2.7225 1.5036-9.8859-10.777-7.2858-11.281-7.2591-21.818 1.1584-4.6798 3.7383-10.318 8.0625-12.529 9.6094-12.897 9.0215-14.79 13.581-7.4667 17.986 7.1383 4.2937 8.6662 4.0631 17.625-2.6601zm-647.02-2.7474c6.5784-3.7638 10.609-12.528 8.4034-18.274-0.89048-2.3205-4.3213 1.8522-4.3213 5.2558 0 3.2722-0.72063 3.7591-10.312 6.9681-13.281 4.4431-13.178 7.0085 0.35463 8.8299 0.45286 0.0609 3.0969-1.19 5.8757-2.7798zm711.15-0.0374c9.6195-2.0389 15.476-6.5288 18.057-13.844 3.5414-10.037-0.19604-23.504-6.5261-23.515-4.3485-0.0075-12.783 10.814-9.8438 12.631 2.9869 1.846 0.29583 3.2625-11.484 6.045-18.401 4.3463-18.442 4.375-14.197 9.9405 3.0134 3.9508 7.8349 7.0052 13.447 8.5189 5.4372 1.4664 4.7531 1.4519 10.547 0.22385zm-734.73-2.68c0.65009-1.0519-5.2269-4.991-12.537-8.4028-6.9482-3.2431-7.7223-1.6853-3.5881 7.2206 1.0587 2.2806 14.822 3.2897 16.125 1.1823zm609.15-2.8721c7.0271-1.9515 4.994-4.1086-8.6719-9.2008-9.5719-3.5667-12.578-3.6913-11.79-0.48879 0.80129 3.2569 6.6172 9.4937 9.3567 10.034 3.7729 0.74386 7.6158 0.62475 11.105-0.34419zm34.994-6.1002c1.81-9.625-4.26-26.663-9.5-26.663-1.9354 0-3.7281 5.5521-2.4524 7.5949 1.719 2.7526 1.5096 3.1524-5.9418 11.347-9.3315 10.262-8.9989 10.683 8.6358 10.935l8.6294 0.12341 0.62603-3.337zm-629.39-13.967c1.1732 0.3577 2.7992 1.2333 3.6132 1.9457 2.4261 2.1233 10.246-0.70625 10.234-3.703-0.0347-8.4784-18.184-12.912-32.285-7.8865-6.9702 2.484-6.1977 8.9951 0.90908 7.6618 3.5426-0.6646 3.8111-0.19959 4.7386 8.2066 1.2795 11.596 1.9266 11.78 6.5652 1.8676 3.7371-7.9859 4.2758-8.6863 6.2244-8.0922zm-98.237 5.4679c0.365-5.478 0.317-10.283-0.108-10.677-4.218-3.908-32.196-5.221-32.174-1.51 0.0064 1.0859 13.812 9.2451 17.571 10.385 1.7054 0.51707 2.2886 0.16602 3.0496-1.8356 1.5579-4.0976 3.6944-2.4745 6.1775 4.6928 1.2504 3.6094 2.4677 7.0898 2.7051 7.7344 1.2026 3.2655 2.1756 0.18585 2.7768-8.7888zm698.03-5.452c0-10.755 0.27107-11.305 5.5658-11.305 3.1518 0 8.3693-5.2783 8.4655-8.564 0.0873-2.9806-18.834-3.5147-24.257-0.68481-1.337 0.69769-2.8528 1.2825-3.3685 1.2995-0.51563 0.01704-2.4141 1.2877-4.2188 2.8236l-3.2812 2.7926 2.6304 2.3384c1.4467 1.2861 3.4161 2.3384 4.3765 2.3384 2.4506 0 4.7119 0.97469 4.7119 2.0309 0 1.6063 7.7487 16.719 8.5723 16.719 0.44147 0 0.80267-4.4048 0.80267-9.7884zm-628.13 3.225c0-0.97039-0.37391-1.9954-0.83092-2.2779-0.94558-0.5844-2.1474 3.126-1.4028 4.3309 0.76785 1.2424 2.2337-0.10486 2.2337-2.053zm604.48 0.41559c2.5756-1.804 2.6062-2.7055 0.17441-5.1373-2.52-2.53-3.71-1.603-3.71 2.902 0 4.0822 0.47582 4.3825 3.5414 2.2353zm124.9-8.4159c6.2847-10.116 8.4734-11.752 11.25-8.406 1.5813 1.9054 4.8972 1.7706 7.6079-0.30917 1.2297-0.94348 2.9741-1.9849 3.8764-2.3143 7.25-2.6466-0.64151-5.8345-14.297-5.7755-15.945 0.06893-18.007 2.2693-17.096 18.245 0.61253 10.743 1.1445 10.654 8.6584-1.4405zm-877.56 42.588c-11.676-6.78-10.561-28.175 1.5878-30.454 7.0445-1.322 10.38 3.013 4.4755 5.815-4.7749 2.265-5.7401 4.899-3.728 10.168 2.9368 7.69 9.7418 10.045 17.537 6.0678 4.3428-2.2155 5.2001-1.9462 3.5601 1.1182-4.1813 7.8128-16.12 11.522-23.433 7.2804z"/>
</svg>
